<svg width="84" height="56" xmlns="http://www.w3.org/2000/svg">

 <g>
  <title>Layer 1</title>
  <g data-name="Layer 2" id="Layer_2">
   <g data-name="Layer 1" id="Layer_1-2">
    <path id="svg_1" fill="#979797" d="m73.92262,55.51l-17.53,0a9.59,9.59 0 0 1 0,-19.18l17.53,0a9.59,9.59 0 1 1 0,19.18zm-17.53,-16.88a7.29,7.29 0 0 0 0,14.58l17.53,0a7.29,7.29 0 0 0 0,-14.58l-17.53,0z" class="cls-2"/>
    <path id="svg_2" fill="#979797" d="m54.56262,47.33l-41.29,0a13,13 0 0 1 -4.7,-25.22a13.8,13.8 0 0 1 -0.35,-3.36a18.74,18.74 0 0 1 18.69,-18.75l0,0l12.67,0a13.92,13.92 0 0 1 13.28,10l1.7,0a18.66,18.66 0 1 1 0,37.31l0,0.02zm-45.27,-23.03a10.75,10.75 0 0 0 4,20.73l41.27,0a16.36,16.36 0 0 0 0,-32.71l-1.24,0a13.69,13.69 0 0 1 0.09,1.58a6.18,6.18 0 0 1 -6.19,6.17l-7.69,0a5,5 0 0 1 -3.55,-1.48a4.93,4.93 0 0 1 -1.46,-3.59a5,5 0 0 1 5,-5l10.92,0a11.61,11.61 0 0 0 -10.87,-7.7l-12.63,0l0,0a16.44,16.44 0 0 0 -16.47,16.45a11.63,11.63 0 0 0 0.31,2.72a13.65,13.65 0 0 1 2.49,-0.23l14.16,0a5.89,5.89 0 1 1 0,11.77l-5,0a14.29,14.29 0 0 1 -13.14,-8.71zm2.24,-0.62a12,12 0 0 0 10.9,7l5,0a3.59,3.59 0 1 0 0,-7.17l-14.16,0a10,10 0 0 0 -1.74,0.17zm28,-11.36a2.74,2.74 0 0 0 -2.73,2.73a2.71,2.71 0 0 0 2.71,2.72l7.71,0a3.88,3.88 0 0 0 3.87,-3.87a11.75,11.75 0 0 0 -0.11,-1.58l-11.45,0z" class="cls-2"/>
   </g>
  </g>
 </g>
</svg>